<svg viewBox="0 0 64 64" xmlns="http://www.w3.org/2000/svg">
  <!-- Document Paper -->
  <rect x="8" y="8" width="48" height="48" fill="#FFFFFF" />
  <!-- Folded corner -->
  <rect x="48" y="8" width="8" height="8" fill="#B0B0B0" />
  <path d="M 48 8 L 48 16 L 56 16 Z" fill="#E0E0E0" />

  <!-- Document text lines -->
  <rect x="12" y="16" width="32" height="2" fill="#E0E0E0" />
  <rect x="12" y="22" width="32" height="2" fill="#E0E0E0" />

  <!-- "POC" text -->
  <!-- P -->
  <rect x="14" y="30" width="2" height="10" fill="#0000FF" />
  <rect x="16" y="30" width="4" height="2" fill="#0000FF" />
  <rect x="16" y="34" width="4" height="2" fill="#0000FF" />
  <rect x="20" y="32" width="2" height="2" fill="#0000FF" />
  <!-- O -->
  <rect x="24" y="32" width="2" height="6" fill="#0000FF" />
  <rect x="30" y="32" width="2" height="6" fill="#0000FF" />
  <rect x="26" y="30" width="4" height="2" fill="#0000FF" />
  <rect x="26" y="38" width="4" height="2" fill="#0000FF" />
  <!-- C -->
  <rect x="34" y="32" width="2" height="6" fill="#0000FF" />
  <rect x="36" y="30" width="4" height="2" fill="#0000FF" />
  <rect x="36" y="38" width="4" height="2" fill="#0000FF" />

  <!-- Hand -->
  <rect x="38" y="48" width="16" height="6" fill="#FFDBAC" />
  <rect x="40" y="44" width="4" height="4" fill="#FFDBAC" /> <!-- Thumb -->
  <rect x="52" y="46" width="4" height="2" fill="#F1C27D" /> <!-- Shadow -->

  <!-- Pen -->
  <rect x="30" y="38" width="18" height="4" fill="#2D3748" transform="rotate(-30 40 40)" />
  <rect x="26" y="38" width="4" height="4" fill="#718096" transform="rotate(-30 40 40)" />
  <path d="M 28 38 L 26 40 L 28 42 Z" fill="#FFFFFF" transform="rotate(-30 40 40)" /> <!-- Tip -->
</svg>
